<svg
  viewBox="0 0 200 40"
  height="40px"
  width="200px"
  role="img"
>
  <title>TodoApp</title>
  <g fill="none" fill-rule="evenodd">
    <path
      d="M 365.64258 276.91797 L 365.64258 288.16992 C 365.03101 286.84454 364.05447 285.79802 362.71484 285.0293 C 361.37521 284.26057 359.774 283.875 357.91016 283.875 C 355.9007 283.875 354.09588 284.33981 352.49414 285.26758 C 350.92152 286.16883 349.66825 287.48012 348.73633 289.20312 C 347.83353 290.89961 347.38281 292.91342 347.38281 295.24609 C 347.38281 297.55226 347.83353 299.56802 348.73633 301.29102 C 349.66825 303.01402 350.92152 304.33981 352.49414 305.26758 C 354.09588 306.16884 355.9007 306.61914 357.91016 306.61914 C 359.774 306.61914 361.37521 306.23357 362.71484 305.46484 C 364.05447 304.69612 365.03101 303.6496 365.64258 302.32422 L 365.64258 306.33984 L 373.11133 306.33984 L 373.11133 276.91797 L 365.64258 276.91797 z M 293.40039 278.22852 L 293.40039 283.63672 L 301.69922 283.63672 L 301.69922 306.33984 L 309.21289 306.33984 L 309.21289 283.63672 L 317.60156 283.63672 L 317.60156 278.22852 L 293.40039 278.22852 z M 415.24023 278.42773 L 403.92773 306.33984 L 411.78906 306.33984 L 413.71289 301.21094 L 425.28906 301.21094 L 427.21094 306.33984 L 435.16016 306.33984 L 423.8457 278.42773 L 415.24023 278.42773 z M 332.15039 283.875 C 329.73322 283.875 327.56466 284.33981 325.64258 285.26758 C 323.72049 286.16883 322.20626 287.48012 321.09961 289.20312 C 320.02207 290.92612 319.48242 292.93993 319.48242 295.24609 C 319.48242 297.55226 320.02207 299.56802 321.09961 301.29102 C 322.20626 303.01402 323.72049 304.33981 325.64258 305.26758 C 327.56466 306.16884 329.73322 306.61914 332.15039 306.61914 C 334.56756 306.61914 336.72227 306.16884 338.61523 305.26758 C 340.53732 304.33981 342.0377 303.01402 343.11523 301.29102 C 344.22189 299.56802 344.77539 297.55226 344.77539 295.24609 C 344.77539 292.93993 344.22189 290.92612 343.11523 289.20312 C 342.0377 287.48012 340.53732 286.16883 338.61523 285.26758 C 336.72227 284.33981 334.56756 283.875 332.15039 283.875 z M 389.65625 283.875 C 387.23907 283.875 385.0705 284.33981 383.14844 285.26758 C 381.22635 286.16883 379.71214 287.48012 378.60547 289.20312 C 377.52795 290.92612 376.98828 292.93993 376.98828 295.24609 C 376.98828 297.55226 377.52795 299.56802 378.60547 301.29102 C 379.71214 303.01402 381.22635 304.33981 383.14844 305.26758 C 385.0705 306.16884 387.23907 306.61914 389.65625 306.61914 C 392.07341 306.61914 394.22813 306.16884 396.12109 305.26758 C 398.04319 304.33981 399.54358 303.01402 400.62109 301.29102 C 401.72776 299.56802 402.28125 297.55226 402.28125 295.24609 C 402.28125 292.93993 401.72776 290.92612 400.62109 289.20312 C 399.54358 287.48012 398.04319 286.16883 396.12109 285.26758 C 394.22813 284.33981 392.07341 283.875 389.65625 283.875 z M 453.26562 283.875 C 451.40179 283.875 449.80058 284.26057 448.46094 285.0293 C 447.1213 285.79802 446.14673 286.84454 445.53516 288.16992 L 445.53516 284.1543 L 438.06445 284.1543 L 438.06445 316.91797 L 445.53516 316.91797 L 445.53516 302.32422 C 446.14673 303.6496 447.1213 304.69612 448.46094 305.46484 C 449.80058 306.23357 451.40179 306.61914 453.26562 306.61914 C 455.27507 306.61914 457.06606 306.16884 458.63867 305.26758 C 460.24041 304.33981 461.49368 303.01402 462.39648 301.29102 C 463.32842 299.56802 463.79492 297.55226 463.79492 295.24609 C 463.79492 292.91342 463.32842 290.89961 462.39648 289.20312 C 461.49368 287.48012 460.24041 286.16883 458.63867 285.26758 C 457.06606 284.33981 455.27507 283.875 453.26562 283.875 z M 482.87305 283.875 C 481.00921 283.875 479.40605 284.26057 478.06641 285.0293 C 476.72677 285.79802 475.7522 286.84454 475.14062 288.16992 L 475.14062 284.1543 L 467.66992 284.1543 L 467.66992 316.91797 L 475.14062 316.91797 L 475.14062 302.32422 C 475.7522 303.6496 476.72677 304.69612 478.06641 305.46484 C 479.40605 306.23357 481.00921 306.61914 482.87305 306.61914 C 484.8825 306.61914 486.67348 306.16884 488.24609 305.26758 C 489.84783 304.33981 491.09915 303.01402 492.00195 301.29102 C 492.93388 299.56802 493.40039 297.55226 493.40039 295.24609 C 493.40039 292.91342 492.93388 290.89961 492.00195 289.20312 C 491.09915 287.48012 489.84783 286.16883 488.24609 285.26758 C 486.67348 284.33981 484.8825 283.875 482.87305 283.875 z M 419.52148 285.70508 L 423.36523 296.04297 L 415.63477 296.04297 L 419.52148 285.70508 z M 332.15039 289.75977 C 333.5774 289.75977 334.77138 290.23713 335.73242 291.19141 C 336.69347 292.11917 337.17383 293.47008 337.17383 295.24609 C 337.17383 297.02211 336.69347 298.37497 335.73242 299.30273 C 334.77138 300.2305 333.5774 300.69531 332.15039 300.69531 C 330.72338 300.69531 329.51556 300.2305 328.52539 299.30273 C 327.56435 298.37497 327.08398 297.02211 327.08398 295.24609 C 327.08398 293.47008 327.56435 292.11917 328.52539 291.19141 C 329.51556 290.23713 330.72338 289.75977 332.15039 289.75977 z M 389.65625 289.75977 C 391.08325 289.75977 392.27725 290.23713 393.23828 291.19141 C 394.19934 292.11917 394.67969 293.47008 394.67969 295.24609 C 394.67969 297.02211 394.19934 298.37497 393.23828 299.30273 C 392.27725 300.2305 391.08325 300.69531 389.65625 300.69531 C 388.22925 300.69531 387.02144 300.2305 386.03125 299.30273 C 385.07022 298.37497 384.58984 297.02211 384.58984 295.24609 C 384.58984 293.47008 385.07022 292.11917 386.03125 291.19141 C 387.02144 290.23713 388.22925 289.75977 389.65625 289.75977 z M 360.3125 289.83984 C 361.88512 289.83984 363.16608 290.32976 364.15625 291.31055 C 365.17554 292.26482 365.68555 293.57611 365.68555 295.24609 C 365.68555 296.88956 365.17554 298.20281 364.15625 299.18359 C 363.16608 300.16438 361.88512 300.6543 360.3125 300.6543 C 358.71076 300.6543 357.414 300.17693 356.42383 299.22266 C 355.46278 298.26838 354.98242 296.94258 354.98242 295.24609 C 354.98242 293.5496 355.46278 292.22576 356.42383 291.27148 C 357.414 290.31721 358.71076 289.83984 360.3125 289.83984 z M 450.86328 289.83984 C 452.46502 289.83984 453.746 290.31721 454.70703 291.27148 C 455.69719 292.22576 456.19336 293.5496 456.19336 295.24609 C 456.19336 296.94258 455.69719 298.26838 454.70703 299.22266 C 453.746 300.17693 452.46502 300.6543 450.86328 300.6543 C 449.29067 300.6543 447.99585 300.16438 446.97656 299.18359 C 445.9864 298.20281 445.49023 296.88956 445.49023 295.24609 C 445.49023 293.57611 445.9864 292.26482 446.97656 291.31055 C 447.99585 290.32976 449.29067 289.83984 450.86328 289.83984 z M 480.46875 289.83984 C 482.07049 289.83984 483.35342 290.31721 484.31445 291.27148 C 485.30461 292.22576 485.79883 293.5496 485.79883 295.24609 C 485.79883 296.94258 485.30461 298.26838 484.31445 299.22266 C 483.35342 300.17693 482.07049 300.6543 480.46875 300.6543 C 478.89614 300.6543 477.60132 300.16438 476.58203 299.18359 C 475.59185 298.20281 475.0957 296.88956 475.0957 295.24609 C 475.0957 293.57611 475.59185 292.26482 476.58203 291.31055 C 477.60132 290.32976 478.89614 289.83984 480.46875 289.83984 z "
      fill="currentColor"
    />
  </g>
</svg>
